<svg id="Layer_1" enable-background="new 0 0 511.957 511.957" height="512" viewBox="0 0 511.957 511.957" width="512" xmlns="http://www.w3.org/2000/svg"><g><g><g><g><path d="" fill="#fff"/><path d="" fill="#fff"/><g><path d="m371.28 80.979v234.973c0 25.932-51.057 81.779-114.039 81.779s-114.039-55.847-114.039-81.779v-234.973z" fill="#fc7bd6"/><path d="m321.28 80.98v234.973c0 22.396-38.083 67.097-89.039 78.874 8.046 1.86 16.411 2.905 25 2.905 62.982 0 114.039-55.847 114.039-81.779v-234.973z" fill="#fc65cf"/><ellipse cx="257.241" cy="80.979" fill="#fcb1e6" rx="114.039" ry="46.955"/></g></g><g><g><path d="m370.047 181.143-134.41 55.368 134.41 55.367 134.41-55.367z" fill="#7affd5"/></g><path d="m370.047 291.702v169.33l134.41-55.367v-169.154z" fill="#1ee3a5"/><path d="m454.457 257.042v169.22l50-20.597v-169.154z" fill="#1cd198"/><path d="m235.637 236.511 134.41 55.191v169.33l-134.41-55.367z" fill="#15aa78"/></g></g><g><path d="m143.202 477.938v-215.365l-135.745 160.886z" fill="#fcf2b4"/><path d="m143.202 477.938v-215.365l135.746 160.886z" fill="#fce767"/><g><path d="m249.066 435.451 29.882-11.992-135.746-160.886z" fill="#fcdf2b"/></g></g></g><path d="m511.879 235.475c-.362-2.602-2.137-4.898-4.566-5.899l-128.533-52.946v-95.65c0-15.657-13.33-29.835-37.536-39.923-8.95-3.724-14.721 10.114-5.77 13.846 17.724 7.387 28.306 17.135 28.306 26.077 0 18.662-43.754 39.455-106.539 39.455s-106.539-20.793-106.539-39.455 43.754-39.455 106.539-39.455c14.375 0 28.36 1.117 41.566 3.32 9.563 1.613 12.033-13.199 2.469-14.795-14.021-2.34-28.836-3.525-44.035-3.525-31.417 0-61.069 5.085-83.493 14.317-24.534 10.103-38.045 24.356-38.045 40.138v178.85l-46.274 54.844c-6.253 7.412 5.211 17.084 11.465 9.674l34.809-41.257v183.755l-115.822-46.483 55.511-65.791c6.253-7.412-5.211-17.084-11.465-9.674l-62.203 73.723c-3.04 4.934-2.061 8.866 2.939 11.797l135.746 54.48c1.768.712 3.819.712 5.587 0l132.857-53.32 88.337 36.389c1.806.745 3.907.744 5.713 0l134.41-55.367c2.81-1.157 4.644-3.896 4.644-6.935v-169.154c0-.35-.03-.695-.078-1.036zm-228.318 181.82-40.423-47.91v-121.673l119.409 49.188v152.931zm86.486-228.04 114.692 47.245-114.693 47.095-114.691-47.095zm-196.299-68.139c22.424 9.233 52.076 14.318 83.493 14.318 34.928 0 78.354-4.515 106.539-27.484v67.664l-130.999 53.962c-2.757 1.135-4.644 3.95-4.644 6.935v115.096l-77.435-91.777v-151.88c6.002 4.892 13.727 9.329 23.046 13.166zm-23.046 345.731v-183.755l115.821 137.272zm226.845-17.016v-152.931l119.41-49.188v152.932z"/></g></svg>